<svg width="14" height="20" viewBox="0 0 14 20" fill="none" xmlns="http://www.w3.org/2000/svg">
<g clip-path="url(#clip0)">
<path d="M7.19001 19.7655C7.0668 19.8163 6.93222 19.8163 6.80901 19.7655C-0.170991 16.9059 -0.0619908 10.1317 0.0180092 5.18399C0.0260092 4.65239 0.0340092 4.14973 0.0340092 3.66446C0.0326765 3.48342 0.0934264 3.30918 0.202921 3.17997C0.312415 3.05077 0.461704 2.97717 0.618009 2.97534C3.11201 2.97534 5.01001 2.12755 6.59301 0.309204C6.64633 0.247256 6.70969 0.198105 6.77944 0.164569C6.8492 0.131032 6.92398 0.11377 6.99951 0.11377C7.07504 0.11377 7.14982 0.131032 7.21957 0.164569C7.28933 0.198105 7.35269 0.247256 7.40601 0.309204C8.98901 2.12755 10.888 2.97534 13.383 2.97534C13.5391 2.97748 13.6882 3.05121 13.7975 3.18038C13.9067 3.30955 13.9673 3.48362 13.966 3.66446C13.966 4.15089 13.974 4.65239 13.983 5.18399C14.063 10.1306 14.172 16.9059 7.19101 19.7655H7.19001ZM12.817 5.21063C12.812 4.91182 12.807 4.62227 12.805 4.33968C10.467 4.2227 8.59901 3.38649 7.00001 1.73956C5.40001 3.38649 3.53301 4.2227 1.19701 4.33968L1.18401 5.21063C1.10401 10.1839 1.01401 15.8138 7.00001 18.3838C12.987 15.8126 12.897 10.1839 12.816 5.21063H12.817ZM9.83301 7.56521C9.9426 7.69579 10.0039 7.87071 10.0039 8.05281C10.0039 8.23491 9.9426 8.40983 9.83301 8.5404L6.60601 12.3531C6.55249 12.4172 6.48839 12.4681 6.41752 12.5029C6.34666 12.5377 6.27048 12.5556 6.19351 12.5556C6.11654 12.5556 6.04036 12.5377 5.96949 12.5029C5.89863 12.4681 5.83453 12.4172 5.78101 12.3531L4.16701 10.4456C4.05718 10.3152 3.99571 10.1402 3.99571 9.95802C3.99571 9.77583 4.05718 9.60085 4.16701 9.47042C4.2206 9.4065 4.28473 9.35569 4.35558 9.32099C4.42644 9.2863 4.50258 9.26842 4.57951 9.26842C4.65644 9.26842 4.73258 9.2863 4.80344 9.32099C4.87429 9.35569 4.93842 9.4065 4.99201 9.47042L6.19301 10.8904L9.00801 7.56405C9.0616 7.50014 9.12573 7.44933 9.19658 7.41463C9.26744 7.37993 9.34358 7.36205 9.42051 7.36205C9.49744 7.36205 9.57358 7.37993 9.64444 7.41463C9.71529 7.44933 9.77942 7.50014 9.83301 7.56405V7.56521Z" fill="#787878"/>
</g>
<defs>
<clipPath id="clip0">
<rect width="14" height="19.6891" fill="white" transform="translate(0 0.114502)"/>
</clipPath>
</defs>
</svg>
